<svg width="320" height="700" viewBox="0 0 320 700"
  xmlns="http://www.w3.org/2000/svg" font-family="-apple-system, Helvetica, sans-serif">
  <defs><clipPath id="scs"><rect width="320" height="700" rx="46"/></clipPath></defs>
  <rect width="320" height="700" rx="48" fill="#000"/>
  <rect x="3" y="3" width="314" height="694" rx="46" fill="#F2F2F7" clip-path="url(#scs)"/>
  <rect x="116" y="13" width="88" height="28" rx="14" fill="#000"/>
  <text x="22" y="55" font-size="15" font-weight="600" fill="#000">12:00</text>
  <text x="266" y="55" font-size="13" fill="#000">▲ ▌</text>
  <rect x="3" y="68" width="314" height="44" fill="#F2F2F7"/>
<line x1="3" y1="111.5" x2="317" y2="111.5" stroke="#E5E5EA" stroke-width=".5"/>
<text x="160" y="94" font-size="16" font-weight="600" fill="#000" text-anchor="middle">3번째 참여</text>
<text x="20" y="95" font-size="20" fill="#FF6B35">‹</text>
<text x="36" y="95" font-size="15" fill="#FF6B35">메인</text>
<text x="20" y="132" font-size="13" fill="#8E8E93">먹고 싶은 음식을 골라주세요</text>
<rect x="16" y="144" width="134" height="88" rx="14" fill="#FFF8F5" stroke="#FF6B35" stroke-width="2"/>
<text x="83" y="182" font-size="26" text-anchor="middle">🍲</text>
<text x="83" y="200" font-size="13" font-weight="600" fill="#000" text-anchor="middle">한식</text>
<text x="83" y="214" font-size="10" fill="#8E8E93" text-anchor="middle">국밥·비빔밥</text>
<circle cx="136" cy="158" r="10" fill="#FF6B35"/>
<text x="136" y="163" font-size="11" fill="#FFFFFF" text-anchor="middle">✓</text>
<rect x="158" y="144" width="134" height="88" rx="14" fill="#FFFFFF" stroke="#E5E5EA" stroke-width="2"/>
<text x="225" y="182" font-size="26" text-anchor="middle">🍣</text>
<text x="225" y="200" font-size="13" font-weight="600" fill="#000" text-anchor="middle">일식</text>
<text x="225" y="214" font-size="10" fill="#8E8E93" text-anchor="middle">라멘·초밥</text>
<rect x="16" y="240" width="134" height="88" rx="14" fill="#FFFFFF" stroke="#E5E5EA" stroke-width="2"/>
<text x="83" y="278" font-size="26" text-anchor="middle">🥟</text>
<text x="83" y="296" font-size="13" font-weight="600" fill="#000" text-anchor="middle">중식</text>
<text x="83" y="310" font-size="10" fill="#8E8E93" text-anchor="middle">짜장·짬뽕</text>
<rect x="158" y="240" width="134" height="88" rx="14" fill="#FFFFFF" stroke="#E5E5EA" stroke-width="2"/>
<text x="225" y="278" font-size="26" text-anchor="middle">🍝</text>
<text x="225" y="296" font-size="13" font-weight="600" fill="#000" text-anchor="middle">양식</text>
<text x="225" y="310" font-size="10" fill="#8E8E93" text-anchor="middle">파스타·돈가스</text>
<rect x="16" y="336" width="134" height="88" rx="14" fill="#FFFFFF" stroke="#E5E5EA" stroke-width="2"/>
<text x="83" y="374" font-size="26" text-anchor="middle">🌮</text>
<text x="83" y="392" font-size="13" font-weight="600" fill="#000" text-anchor="middle">분식</text>
<text x="83" y="406" font-size="10" fill="#8E8E93" text-anchor="middle">떡볶이·김밥</text>
<rect x="158" y="336" width="134" height="88" rx="14" fill="#FFFFFF" stroke="#E5E5EA" stroke-width="2"/>
<text x="225" y="374" font-size="26" text-anchor="middle">🍔</text>
<text x="225" y="392" font-size="13" font-weight="600" fill="#000" text-anchor="middle">햄버거</text>
<text x="225" y="406" font-size="10" fill="#8E8E93" text-anchor="middle">버거·감자튀김</text>
<rect x="16" y="578" width="288" height="44" rx="12" fill="#FF6B35"/>
<text x="160" y="605" font-size="15" font-weight="600" fill="#FFFFFF" text-anchor="middle">선택 완료</text>
</svg>