<svg width="320" height="700" viewBox="0 0 320 700"
  xmlns="http://www.w3.org/2000/svg" font-family="-apple-system, Helvetica, sans-serif">
  <defs><clipPath id="scr"><rect width="320" height="700" rx="46"/></clipPath></defs>
  <rect width="320" height="700" rx="48" fill="#000"/>
  <rect x="3" y="3" width="314" height="694" rx="46" fill="#F2F2F7" clip-path="url(#scr)"/>
  <rect x="116" y="13" width="88" height="28" rx="14" fill="#000"/>
  <text x="22" y="55" font-size="15" font-weight="600" fill="#000">12:00</text>
  <text x="266" y="55" font-size="13" fill="#000">▲ ▌</text>
  <rect x="3" y="68" width="314" height="44" fill="#F2F2F7"/>
<line x1="3" y1="111.5" x2="317" y2="111.5" stroke="#E5E5EA" stroke-width=".5"/>
<text x="160" y="94" font-size="16" font-weight="600" fill="#000" text-anchor="middle">한식 맛집</text>
<text x="20" y="95" font-size="20" fill="#FF6B35">‹</text>
<text x="36" y="95" font-size="15" fill="#FF6B35">메인</text>
<rect x="16" y="120" width="288" height="46" rx="13" fill="#FFF8F5"/>
<text x="36" y="149" font-size="22">🍲</text>
<text x="68" y="135" font-size="10" font-weight="600" fill="#C73E00">룰렛 결과</text>
<text x="68" y="152" font-size="14" font-weight="700" fill="#000">한식 음식점만 보는 중</text>
<text x="284" y="149" font-size="11" fill="#8E8E93" text-anchor="end">전체 보기</text>
<rect x="16" y="178" width="288" height="68" rx="14" fill="#FFFFFF"/>
<rect x="28" y="188" width="46" height="46" rx="12" fill="#FFF3E0"/>
<text x="51" y="216" font-size="22" text-anchor="middle">🍱</text>
<text x="86" y="206" font-size="14" font-weight="600" fill="#000">한솥도시락 역삼점</text>
<rect x="160" y="194" width="28" height="16" rx="4" fill="#FFF0EB"/>
<text x="174" y="205" font-size="10" font-weight="600" fill="#C73E00" text-anchor="middle">추천</text>
<text x="86" y="222" font-size="12" fill="#8E8E93">한식</text>
<text x="86" y="238" font-size="12" font-weight="600" fill="#FF9F0A">★ 4.2</text>
<text x="120" y="238" font-size="11" fill="#8E8E93">3분</text>
<rect x="150" y="228" width="34" height="14" rx="4" fill="#E5E5EA"/>
<text x="167" y="239" font-size="9" fill="#3C3C43" text-anchor="middle">즉시</text>
<text x="300" y="216" font-size="18" fill="#C6C6C8" text-anchor="end">›</text>
<rect x="16" y="256" width="288" height="68" rx="14" fill="#FFFFFF"/>
<rect x="28" y="266" width="46" height="46" rx="12" fill="#FFF8F5"/>
<text x="51" y="294" font-size="22" text-anchor="middle">🍲</text>
<text x="86" y="284" font-size="14" font-weight="600" fill="#000">진순이 설렁탕</text>
<text x="86" y="300" font-size="12" fill="#8E8E93">한식</text>
<text x="86" y="316" font-size="12" font-weight="600" fill="#FF9F0A">★ 4.6</text>
<text x="120" y="316" font-size="11" fill="#8E8E93">5분</text>
<rect x="150" y="306" width="34" height="14" rx="4" fill="#E5E5EA"/>
<text x="167" y="317" font-size="9" fill="#3C3C43" text-anchor="middle">15분</text>
<text x="300" y="294" font-size="18" fill="#C6C6C8" text-anchor="end">›</text>
<rect x="16" y="334" width="288" height="68" rx="14" fill="#FFFFFF"/>
<rect x="28" y="344" width="46" height="46" rx="12" fill="#FFF0EB"/>
<text x="51" y="372" font-size="22" text-anchor="middle">🥘</text>
<text x="86" y="362" font-size="14" font-weight="600" fill="#000">뚝배기 가마솥</text>
<rect x="144" y="350" width="28" height="16" rx="4" fill="#FFF0EB"/>
<text x="158" y="361" font-size="10" font-weight="600" fill="#C73E00" text-anchor="middle">추천</text>
<text x="86" y="378" font-size="12" fill="#8E8E93">한식</text>
<text x="86" y="394" font-size="12" font-weight="600" fill="#FF9F0A">★ 4.1</text>
<text x="120" y="394" font-size="11" fill="#8E8E93">4분</text>
<rect x="150" y="384" width="34" height="14" rx="4" fill="#E5E5EA"/>
<text x="167" y="395" font-size="9" fill="#3C3C43" text-anchor="middle">5분</text>
<text x="300" y="372" font-size="18" fill="#C6C6C8" text-anchor="end">›</text>
</svg>